<svg width="22" height="17" viewBox="0 0 22 17" fill="none" xmlns="http://www.w3.org/2000/svg">
<rect width="22" height="17" fill="#FAFBFA"/>
<g id="iPhone 14 - 1" style="mix-blend-mode:darken" clip-path="url(#clip0_0_1)">
<rect width="390" height="844" transform="translate(-17 -41)" fill="white"/>
<g id="topBar">
<g id="Group 44">
<g id="Vector">
<path d="M11.0003 12.9442C9.66868 11.7425 8.88576 10.6891 8.62619 9.78785C7.4365 6.44858 14.5673 6.44858 13.3776 9.78785C13.09 10.708 12.3071 11.7611 11.0035 12.9442H11.0003ZM18.2888 15.723C16.0698 16.4178 13.8745 15.3102 11.9948 13.8079C17.4763 8.87221 14.4274 6.21863 11.0003 6.21863C8.10283 6.21863 6.50743 7.98351 7.1342 10.0322C7.49981 11.1399 8.46528 12.3997 10.0058 13.8079C8.28959 15.1758 6.81132 15.8073 5.51348 15.8919C2.87558 16.1738 0.812222 14.3338 1.75184 12.4354C2.54848 10.9494 7.64595 3.66295 7.86489 3.26907C8.69583 2.12802 9.21338 1.09095 10.9977 1.09095C12.7038 1.09095 13.2873 2.07528 14.1826 3.36279C16.0819 6.04256 18.8966 10.0975 20.2414 12.4354C20.9362 13.6902 20.1691 15.1405 18.2888 15.723ZM20.7684 10.5578C13.969 0.14913 13.5923 0 11.0003 0C8.59876 0 7.57789 1.20176 6.53381 2.76211C0.933037 10.8185 0.390159 11.9603 0.343205 12.0597C-0.987348 14.6905 1.75395 16.9999 5.07189 16.9999C6.21727 16.9999 8.26955 16.77 11.0003 14.6321C14.0961 17.0523 16.3426 16.9999 16.9287 16.9999C20.2466 17.0018 22.9879 14.6905 21.6563 12.0597C21.6574 11.9121 20.7689 10.5836 20.7689 10.5578H20.7684Z" fill="url(#paint0_linear_0_1)"/>
<path d="M11.0003 12.9442C9.66868 11.7425 8.88576 10.6891 8.62619 9.78785C7.4365 6.44858 14.5673 6.44858 13.3776 9.78785C13.09 10.708 12.3071 11.7611 11.0035 12.9442H11.0003ZM18.2888 15.723C16.0698 16.4178 13.8745 15.3102 11.9948 13.8079C17.4763 8.87221 14.4274 6.21863 11.0003 6.21863C8.10283 6.21863 6.50743 7.98351 7.1342 10.0322C7.49981 11.1399 8.46528 12.3997 10.0058 13.8079C8.28959 15.1758 6.81132 15.8073 5.51348 15.8919C2.87558 16.1738 0.812222 14.3338 1.75184 12.4354C2.54848 10.9494 7.64595 3.66295 7.86489 3.26907C8.69583 2.12802 9.21338 1.09095 10.9977 1.09095C12.7038 1.09095 13.2873 2.07528 14.1826 3.36279C16.0819 6.04256 18.8966 10.0975 20.2414 12.4354C20.9362 13.6902 20.1691 15.1405 18.2888 15.723ZM20.7684 10.5578C13.969 0.14913 13.5923 0 11.0003 0C8.59876 0 7.57789 1.20176 6.53381 2.76211C0.933037 10.8185 0.390159 11.9603 0.343205 12.0597C-0.987348 14.6905 1.75395 16.9999 5.07189 16.9999C6.21727 16.9999 8.26955 16.77 11.0003 14.6321C14.0961 17.0523 16.3426 16.9999 16.9287 16.9999C20.2466 17.0018 22.9879 14.6905 21.6563 12.0597C21.6574 11.9121 20.7689 10.5836 20.7689 10.5578H20.7684Z" fill="black" fill-opacity="0.2"/>
</g>
</g>
</g>
</g>
<defs>
<linearGradient id="paint0_linear_0_1" x1="11" y1="0" x2="11" y2="17" gradientUnits="userSpaceOnUse">
<stop offset="0.489583" stop-color="#1AA440"/>
<stop offset="1"/>
</linearGradient>
<clipPath id="clip0_0_1">
<rect width="390" height="844" fill="white" transform="translate(-17 -41)"/>
</clipPath>
</defs>
</svg>
